<mxfile host="app.diagrams.net" agent="Mozilla/5.0 (Windows NT 10.0; Win64; x64) AppleWebKit/537.36 (KHTML, like Gecko) Chrome/138.0.0.0 Safari/537.36" version="27.1.6">
  <diagram name="Página-1" id="SwTVtTWrqNBv0GGJ3oAq">
    <mxGraphModel grid="1" page="1" gridSize="10" guides="1" tooltips="1" connect="1" arrows="1" fold="1" pageScale="1" pageWidth="827" pageHeight="1169" math="0" shadow="0">
      <root>
        <mxCell id="0" />
        <mxCell id="1" parent="0" />
        <mxCell id="H_UT5Y4gbUQN_CbYrvD3-1" value="CU037 Solicitar agendamiento de cita" style="swimlane;childLayout=stackLayout;resizeParent=1;resizeParentMax=0;startSize=20;horizontal=0;horizontalStack=1;" vertex="1" parent="1">
          <mxGeometry x="60" y="140" width="700" height="710" as="geometry">
            <mxRectangle x="200" y="80" width="40" height="50" as="alternateBounds" />
          </mxGeometry>
        </mxCell>
        <mxCell id="H_UT5Y4gbUQN_CbYrvD3-3" value="Cliente" style="swimlane;startSize=20;" vertex="1" parent="H_UT5Y4gbUQN_CbYrvD3-1">
          <mxGeometry x="20" width="320" height="710" as="geometry" />
        </mxCell>
        <mxCell id="H_UT5Y4gbUQN_CbYrvD3-4" style="edgeStyle=orthogonalEdgeStyle;rounded=0;orthogonalLoop=1;jettySize=auto;html=1;exitX=0.5;exitY=1;exitDx=0;exitDy=0;entryX=0.5;entryY=0;entryDx=0;entryDy=0;" edge="1" parent="H_UT5Y4gbUQN_CbYrvD3-3" source="H_UT5Y4gbUQN_CbYrvD3-5" target="H_UT5Y4gbUQN_CbYrvD3-6">
          <mxGeometry relative="1" as="geometry" />
        </mxCell>
        <mxCell id="H_UT5Y4gbUQN_CbYrvD3-5" value="" style="ellipse;html=1;shape=startState;fillColor=#000000;strokeColor=#ff0000;fillStyle=auto;" vertex="1" parent="H_UT5Y4gbUQN_CbYrvD3-3">
          <mxGeometry x="180" y="30" width="30" height="30" as="geometry" />
        </mxCell>
        <mxCell id="H_UT5Y4gbUQN_CbYrvD3-6" value="&lt;font style=&quot;vertical-align: inherit;&quot;&gt;&lt;font style=&quot;vertical-align: inherit;&quot;&gt;&lt;font style=&quot;vertical-align: inherit;&quot;&gt;&lt;font style=&quot;vertical-align: inherit;&quot;&gt;Pulsar el apartado de &quot;Agendar cita&quot;&amp;nbsp;&lt;/font&gt;&lt;/font&gt;&lt;/font&gt;&lt;/font&gt;" style="rounded=1;whiteSpace=wrap;html=1;arcSize=40;fontColor=#000000;fillColor=#ffffc0;strokeColor=#ff0000;" vertex="1" parent="H_UT5Y4gbUQN_CbYrvD3-3">
          <mxGeometry x="132.5" y="90" width="125" height="60" as="geometry" />
        </mxCell>
        <mxCell id="H_UT5Y4gbUQN_CbYrvD3-7" value="&lt;font style=&quot;vertical-align: inherit;&quot;&gt;&lt;font style=&quot;vertical-align: inherit;&quot;&gt;Llenar los campos del formulario&lt;/font&gt;&lt;/font&gt;" style="rounded=1;whiteSpace=wrap;html=1;arcSize=40;fontColor=#000000;fillColor=#ffffc0;strokeColor=#ff0000;" vertex="1" parent="H_UT5Y4gbUQN_CbYrvD3-3">
          <mxGeometry x="134" y="200" width="120" height="50" as="geometry" />
        </mxCell>
        <mxCell id="Ud9r9Ou-a3lCrG5WgBHT-2" value="Pulsar el botón &quot;Enviar solicitud&quot;" style="rounded=1;whiteSpace=wrap;html=1;arcSize=40;fontColor=#000000;fillColor=#ffffc0;strokeColor=#ff0000;" vertex="1" parent="H_UT5Y4gbUQN_CbYrvD3-3">
          <mxGeometry x="132.5" y="310" width="120" height="50" as="geometry" />
        </mxCell>
        <mxCell id="H_UT5Y4gbUQN_CbYrvD3-9" style="edgeStyle=orthogonalEdgeStyle;rounded=0;orthogonalLoop=1;jettySize=auto;html=1;exitX=1;exitY=0.5;exitDx=0;exitDy=0;entryX=0;entryY=0.5;entryDx=0;entryDy=0;" edge="1" parent="H_UT5Y4gbUQN_CbYrvD3-1" source="H_UT5Y4gbUQN_CbYrvD3-7">
          <mxGeometry relative="1" as="geometry">
            <Array as="points">
              <mxPoint x="360" y="225" />
              <mxPoint x="360" y="225" />
            </Array>
            <mxPoint x="520" y="225" as="targetPoint" />
          </mxGeometry>
        </mxCell>
        <mxCell id="H_UT5Y4gbUQN_CbYrvD3-11" style="edgeStyle=orthogonalEdgeStyle;rounded=0;orthogonalLoop=1;jettySize=auto;html=1;exitX=1;exitY=0.75;exitDx=0;exitDy=0;entryX=0;entryY=0.5;entryDx=0;entryDy=0;" edge="1" parent="H_UT5Y4gbUQN_CbYrvD3-1" source="H_UT5Y4gbUQN_CbYrvD3-6" target="H_UT5Y4gbUQN_CbYrvD3-26">
          <mxGeometry relative="1" as="geometry">
            <mxPoint x="529.9999999999998" y="130" as="targetPoint" />
            <Array as="points">
              <mxPoint x="278" y="125" />
            </Array>
          </mxGeometry>
        </mxCell>
        <mxCell id="H_UT5Y4gbUQN_CbYrvD3-28" style="edgeStyle=orthogonalEdgeStyle;rounded=0;orthogonalLoop=1;jettySize=auto;html=1;exitX=0.5;exitY=1;exitDx=0;exitDy=0;entryX=0.5;entryY=0;entryDx=0;entryDy=0;" edge="1" parent="H_UT5Y4gbUQN_CbYrvD3-1" source="H_UT5Y4gbUQN_CbYrvD3-26" target="H_UT5Y4gbUQN_CbYrvD3-7">
          <mxGeometry relative="1" as="geometry" />
        </mxCell>
        <mxCell id="H_UT5Y4gbUQN_CbYrvD3-29" style="edgeStyle=orthogonalEdgeStyle;rounded=0;orthogonalLoop=1;jettySize=auto;html=1;exitX=0.5;exitY=1;exitDx=0;exitDy=0;entryX=1;entryY=0.5;entryDx=0;entryDy=0;" edge="1" parent="H_UT5Y4gbUQN_CbYrvD3-1" source="H_UT5Y4gbUQN_CbYrvD3-19" target="Ud9r9Ou-a3lCrG5WgBHT-2">
          <mxGeometry relative="1" as="geometry">
            <Array as="points">
              <mxPoint x="520" y="335" />
            </Array>
            <mxPoint x="605" y="340" as="targetPoint" />
          </mxGeometry>
        </mxCell>
        <mxCell id="H_UT5Y4gbUQN_CbYrvD3-33" style="edgeStyle=orthogonalEdgeStyle;rounded=0;orthogonalLoop=1;jettySize=auto;html=1;exitX=0.5;exitY=1;exitDx=0;exitDy=0;entryX=0;entryY=0.5;entryDx=0;entryDy=0;" edge="1" parent="H_UT5Y4gbUQN_CbYrvD3-1" source="Ud9r9Ou-a3lCrG5WgBHT-2" target="Ud9r9Ou-a3lCrG5WgBHT-5">
          <mxGeometry relative="1" as="geometry">
            <mxPoint x="180" y="470" as="targetPoint" />
          </mxGeometry>
        </mxCell>
        <mxCell id="Ud9r9Ou-a3lCrG5WgBHT-22" style="edgeStyle=orthogonalEdgeStyle;rounded=0;orthogonalLoop=1;jettySize=auto;html=1;entryX=0;entryY=0.5;entryDx=0;entryDy=0;" edge="1" parent="H_UT5Y4gbUQN_CbYrvD3-1" source="Ud9r9Ou-a3lCrG5WgBHT-14" target="H_UT5Y4gbUQN_CbYrvD3-7">
          <mxGeometry relative="1" as="geometry" />
        </mxCell>
        <mxCell id="H_UT5Y4gbUQN_CbYrvD3-12" value="Sistema" style="swimlane;startSize=20;" vertex="1" parent="H_UT5Y4gbUQN_CbYrvD3-1">
          <mxGeometry x="340" width="360" height="710" as="geometry" />
        </mxCell>
        <mxCell id="H_UT5Y4gbUQN_CbYrvD3-13" value="" style="ellipse;html=1;shape=endState;fillColor=#000000;strokeColor=#ff0000;" vertex="1" parent="H_UT5Y4gbUQN_CbYrvD3-12">
          <mxGeometry x="300" y="660" width="30" height="30" as="geometry" />
        </mxCell>
        <mxCell id="H_UT5Y4gbUQN_CbYrvD3-14" style="edgeStyle=orthogonalEdgeStyle;rounded=0;orthogonalLoop=1;jettySize=auto;html=1;exitX=0.5;exitY=1;exitDx=0;exitDy=0;" edge="1" parent="H_UT5Y4gbUQN_CbYrvD3-12">
          <mxGeometry relative="1" as="geometry">
            <mxPoint x="86" y="360" as="sourcePoint" />
            <mxPoint x="86" y="360" as="targetPoint" />
          </mxGeometry>
        </mxCell>
        <mxCell id="H_UT5Y4gbUQN_CbYrvD3-19" value="Valida que los campos no estén vacíos" style="rounded=1;whiteSpace=wrap;html=1;arcSize=40;fontColor=#000000;fillColor=#ffffc0;strokeColor=#ff0000;" vertex="1" parent="H_UT5Y4gbUQN_CbYrvD3-12">
          <mxGeometry x="120" y="200" width="120" height="50" as="geometry" />
        </mxCell>
        <mxCell id="H_UT5Y4gbUQN_CbYrvD3-26" value="&lt;font style=&quot;vertical-align: inherit;&quot;&gt;&lt;font style=&quot;vertical-align: inherit;&quot;&gt;&lt;font style=&quot;vertical-align: inherit;&quot;&gt;&lt;font style=&quot;vertical-align: inherit;&quot;&gt;Muestra formulario de solicitud de cita&lt;/font&gt;&lt;/font&gt;&lt;/font&gt;&lt;/font&gt;" style="rounded=1;whiteSpace=wrap;html=1;arcSize=40;fontColor=#000000;fillColor=#ffffc0;strokeColor=#ff0000;" vertex="1" parent="H_UT5Y4gbUQN_CbYrvD3-12">
          <mxGeometry x="130" y="95" width="120" height="50" as="geometry" />
        </mxCell>
        <mxCell id="Ud9r9Ou-a3lCrG5WgBHT-21" style="edgeStyle=orthogonalEdgeStyle;rounded=0;orthogonalLoop=1;jettySize=auto;html=1;entryX=1;entryY=0.5;entryDx=0;entryDy=0;" edge="1" parent="H_UT5Y4gbUQN_CbYrvD3-12" source="Ud9r9Ou-a3lCrG5WgBHT-5" target="Ud9r9Ou-a3lCrG5WgBHT-14">
          <mxGeometry relative="1" as="geometry" />
        </mxCell>
        <mxCell id="Ud9r9Ou-a3lCrG5WgBHT-23" value="no" style="edgeLabel;html=1;align=center;verticalAlign=middle;resizable=0;points=[];" connectable="0" vertex="1" parent="Ud9r9Ou-a3lCrG5WgBHT-21">
          <mxGeometry x="-0.5604" y="3" relative="1" as="geometry">
            <mxPoint as="offset" />
          </mxGeometry>
        </mxCell>
        <mxCell id="Ud9r9Ou-a3lCrG5WgBHT-5" value="¿Los campos están llenos?" style="rhombus;whiteSpace=wrap;html=1;fontColor=#000000;fillColor=#ffffc0;strokeColor=#ff0000;" vertex="1" parent="H_UT5Y4gbUQN_CbYrvD3-12">
          <mxGeometry x="152" y="360" width="116" height="86" as="geometry" />
        </mxCell>
        <mxCell id="Ud9r9Ou-a3lCrG5WgBHT-10" value="&lt;font style=&quot;vertical-align: inherit;&quot;&gt;&lt;font style=&quot;vertical-align: inherit;&quot;&gt;&lt;font style=&quot;vertical-align: inherit;&quot;&gt;&lt;font style=&quot;vertical-align: inherit;&quot;&gt;Mostrar mensaje de éxito&lt;/font&gt;&lt;/font&gt;&lt;/font&gt;&lt;/font&gt;" style="rounded=1;whiteSpace=wrap;html=1;arcSize=40;fontColor=#000000;fillColor=#ffffc0;strokeColor=#ff0000;" vertex="1" parent="H_UT5Y4gbUQN_CbYrvD3-12">
          <mxGeometry x="230" y="460" width="120" height="50" as="geometry" />
        </mxCell>
        <mxCell id="Ud9r9Ou-a3lCrG5WgBHT-11" value="" style="edgeStyle=orthogonalEdgeStyle;rounded=0;orthogonalLoop=1;jettySize=auto;html=1;entryX=0.5;entryY=0;entryDx=0;entryDy=0;" edge="1" parent="H_UT5Y4gbUQN_CbYrvD3-12" source="Ud9r9Ou-a3lCrG5WgBHT-5" target="Ud9r9Ou-a3lCrG5WgBHT-10">
          <mxGeometry relative="1" as="geometry">
            <mxPoint x="800" y="543" as="sourcePoint" />
            <mxPoint x="845" y="680" as="targetPoint" />
            <Array as="points">
              <mxPoint x="290" y="413" />
            </Array>
          </mxGeometry>
        </mxCell>
        <mxCell id="Ud9r9Ou-a3lCrG5WgBHT-13" value="si" style="edgeLabel;html=1;align=center;verticalAlign=middle;resizable=0;points=[];" connectable="0" vertex="1" parent="Ud9r9Ou-a3lCrG5WgBHT-11">
          <mxGeometry x="-0.4483" y="-1" relative="1" as="geometry">
            <mxPoint as="offset" />
          </mxGeometry>
        </mxCell>
        <mxCell id="Ud9r9Ou-a3lCrG5WgBHT-14" value="&lt;font style=&quot;vertical-align: inherit;&quot;&gt;&lt;font style=&quot;vertical-align: inherit;&quot;&gt;&lt;font style=&quot;vertical-align: inherit;&quot;&gt;&lt;font style=&quot;vertical-align: inherit;&quot;&gt;Mostrar mensaje de error&lt;/font&gt;&lt;/font&gt;&lt;/font&gt;&lt;/font&gt;" style="rounded=1;whiteSpace=wrap;html=1;arcSize=40;fontColor=#000000;fillColor=#ffffc0;strokeColor=#ff0000;" vertex="1" parent="H_UT5Y4gbUQN_CbYrvD3-12">
          <mxGeometry x="10" y="460" width="120" height="50" as="geometry" />
        </mxCell>
        <mxCell id="Ud9r9Ou-a3lCrG5WgBHT-24" value="Administrador" style="swimlane;startSize=20;" vertex="1" parent="1">
          <mxGeometry x="760" y="140" width="180" height="710" as="geometry" />
        </mxCell>
        <mxCell id="H_UT5Y4gbUQN_CbYrvD3-22" value="&lt;font style=&quot;vertical-align: inherit;&quot;&gt;&lt;font style=&quot;vertical-align: inherit;&quot;&gt;&lt;font style=&quot;vertical-align: inherit;&quot;&gt;&lt;font style=&quot;vertical-align: inherit;&quot;&gt;Notifica al administrador solicitud&lt;/font&gt;&lt;/font&gt;&lt;/font&gt;&lt;/font&gt;" style="rounded=1;whiteSpace=wrap;html=1;arcSize=40;fontColor=#000000;fillColor=#ffffc0;strokeColor=#ff0000;" vertex="1" parent="Ud9r9Ou-a3lCrG5WgBHT-24">
          <mxGeometry y="550" width="120" height="50" as="geometry" />
        </mxCell>
        <mxCell id="H_UT5Y4gbUQN_CbYrvD3-34" style="edgeStyle=orthogonalEdgeStyle;rounded=0;orthogonalLoop=1;jettySize=auto;html=1;exitX=0.5;exitY=1;exitDx=0;exitDy=0;entryX=0.5;entryY=0;entryDx=0;entryDy=0;" edge="1" parent="1" source="H_UT5Y4gbUQN_CbYrvD3-22" target="H_UT5Y4gbUQN_CbYrvD3-13">
          <mxGeometry relative="1" as="geometry" />
        </mxCell>
        <mxCell id="Ud9r9Ou-a3lCrG5WgBHT-12" style="edgeStyle=orthogonalEdgeStyle;rounded=0;orthogonalLoop=1;jettySize=auto;html=1;entryX=0.5;entryY=0;entryDx=0;entryDy=0;" edge="1" parent="1" source="Ud9r9Ou-a3lCrG5WgBHT-10" target="H_UT5Y4gbUQN_CbYrvD3-22">
          <mxGeometry relative="1" as="geometry" />
        </mxCell>
      </root>
    </mxGraphModel>
  </diagram>
</mxfile>
